<svg width="12" height="12" viewBox="0 0 12 12" fill="none" xmlns="http://www.w3.org/2000/svg">
<g id="Frame" clip-path="url(#clip0_16_83)">
<path id="Vector" d="M6.01339 2.90625C4.29911 2.90625 2.93303 4.2991 2.93303 5.9866C2.93303 7.70088 4.29911 9.06698 6.01339 9.06698C7.70086 9.06698 9.09377 7.70088 9.09377 5.9866C9.09377 4.2991 7.70086 2.90625 6.01339 2.90625ZM6.01339 7.99551C4.91518 7.99551 4.00446 7.11163 4.00446 5.9866C4.00446 4.88839 4.88836 4.00446 6.01339 4.00446C7.1116 4.00446 7.99556 4.88839 7.99556 5.9866C7.99556 7.11163 7.1116 7.99551 6.01339 7.99551ZM9.9241 2.79911C9.9241 2.39732 9.60265 2.07589 9.2009 2.07589C8.79907 2.07589 8.4777 2.39732 8.4777 2.79911C8.4777 3.20089 8.79907 3.52231 9.2009 3.52231C9.60265 3.52231 9.9241 3.20089 9.9241 2.79911ZM11.9598 3.52231C11.9063 2.55803 11.6919 1.70089 10.9956 1.00447C10.2991 0.308039 9.44196 0.0937465 8.4777 0.0401771C7.48661 -0.0133924 4.51339 -0.0133924 3.52232 0.0401771C2.55803 0.0937465 1.72768 0.308039 1.00446 1.00447C0.308038 1.70089 0.0937523 2.55803 0.0401828 3.52231C-0.0133943 4.51339 -0.0133943 7.48664 0.0401828 8.47764C0.0937523 9.44199 0.308038 10.2723 1.00446 10.9955C1.72768 11.692 2.55803 11.9062 3.52232 11.9598C4.51339 12.0134 7.48661 12.0134 8.4777 11.9598C9.44196 11.9062 10.2991 11.692 10.9956 10.9955C11.6919 10.2723 11.9063 9.44199 11.9598 8.47764C12.0134 7.48664 12.0134 4.51339 11.9598 3.52231ZM10.6741 9.52229C10.4866 10.0581 10.058 10.4598 9.54909 10.6741C8.74551 10.9955 6.87053 10.9152 6.01339 10.9152C5.12943 10.9152 3.25447 10.9955 2.47768 10.6741C1.94196 10.4598 1.54018 10.0581 1.3259 9.52229C1.00446 8.74553 1.08482 6.87056 1.08482 5.9866C1.08482 5.12946 1.00446 3.25446 1.3259 2.45089C1.54018 1.94196 1.94196 1.54017 2.47768 1.32589C3.25447 1.00447 5.12943 1.08482 6.01339 1.08482C6.87053 1.08482 8.74551 1.00447 9.54909 1.32589C10.058 1.51339 10.4598 1.94196 10.6741 2.45089C10.9956 3.25446 10.9152 5.12946 10.9152 5.9866C10.9152 6.87056 10.9956 8.74553 10.6741 9.52229Z" fill="black"/>
</g>
<defs>
<clipPath id="clip0_16_83">
<rect width="12" height="12" fill="white"/>
</clipPath>
</defs>
</svg>
