<svg width="9" height="10" viewBox="0 0 9 10" fill="none" xmlns="http://www.w3.org/2000/svg">
<g id="Frame" clip-path="url(#clip0_16_92)">
<path id="Vector" d="M2.00893 10V3.31096H0.140623V10H2.00893ZM1.06473 2.4161C1.66741 2.4161 2.14955 1.85682 2.14955 1.18568C2.14955 0.536913 1.66741 0 1.06473 0C0.482143 0 0 0.536913 0 1.18568C0 1.85682 0.482143 2.4161 1.06473 2.4161ZM8.97989 10H9V6.33111C9 4.54139 8.6384 3.15436 6.75 3.15436C5.846 3.15436 5.24331 3.71364 4.98217 4.22819H4.96206V3.31096H3.17411V10H5.0424V6.68905C5.0424 5.81657 5.18303 4.98881 6.14731 4.98881C7.1116 4.98881 7.13171 5.97317 7.13171 6.75612V10H8.97989Z" fill="black"/>
</g>
<defs>
<clipPath id="clip0_16_92">
<rect width="9" height="10" fill="white"/>
</clipPath>
</defs>
</svg>
