<svg width="10" height="10" viewBox="0 0 10 10" fill="none" xmlns="http://www.w3.org/2000/svg">
<g id="Frame" clip-path="url(#clip0_16_80)">
<path id="Vector" d="M8.41111 2.48193C8.80249 2.12048 9.15479 1.68674 9.42871 1.18072C9.07647 1.37349 8.66555 1.51807 8.25458 1.56626C8.68509 1.25301 8.9982 0.771084 9.15479 0.168672C8.76335 0.457825 8.31325 0.674696 7.86315 0.795177C7.47177 0.289153 6.94341 0 6.35631 0C5.22126 0 4.30152 1.13253 4.30152 2.53012C4.30152 2.72289 4.32111 2.91566 4.36024 3.10843C2.65768 2.98795 1.13126 1.9759 0.113645 0.457826C-0.0624829 0.819276 -0.16033 1.25301 -0.16033 1.73494C-0.16033 2.60241 0.19192 3.37349 0.759436 3.83132C0.426757 3.8072 0.0940732 3.71084 -0.179901 3.51807V3.54216C-0.179901 4.77109 0.524604 5.78316 1.46394 6.02408C1.30738 6.07227 1.11169 6.12045 0.935563 6.12045C0.798579 6.12045 0.68116 6.09639 0.544176 6.07227C0.798579 7.08434 1.56179 7.80724 2.46199 7.8313C1.75748 8.50601 0.876854 8.91568 -0.082049 8.91568C-0.258177 8.91568 -0.414733 8.89156 -0.571289 8.8675C0.32891 9.59033 1.40523 10 2.57941 10C6.35631 10 8.41111 6.1687 8.41111 2.81928C8.41111 2.6988 8.41111 2.60241 8.41111 2.48193Z" fill="black"/>
</g>
<defs>
<clipPath id="clip0_16_80">
<rect width="10" height="10" fill="white"/>
</clipPath>
</defs>
</svg>
