<svg width="13" height="10" viewBox="0 0 13 10" fill="none" xmlns="http://www.w3.org/2000/svg">
<g id="Frame" clip-path="url(#clip0_16_89)">
<path id="Vector" d="M13.2436 1.42969C13.0867 0.867187 12.59 0.421873 11.9888 0.281253C10.8646 -1.58946e-07 6.42038 0 6.42038 0C6.42038 0 1.95 -1.58946e-07 0.825873 0.281253C0.224597 0.421873 -0.272112 0.867187 -0.428969 1.42969C-0.742676 2.41406 -0.742676 4.52347 -0.742676 4.52347C-0.742676 4.52347 -0.742676 6.6094 -0.428969 7.6172C-0.272112 8.17967 0.224597 8.60153 0.825873 8.7422C1.95 9 6.42038 9 6.42038 9C6.42038 9 10.8646 9 11.9888 8.7422C12.59 8.60153 13.0867 8.17967 13.2436 7.6172C13.5573 6.6094 13.5573 4.52347 13.5573 4.52347C13.5573 4.52347 13.5573 2.41406 13.2436 1.42969ZM4.9564 6.42187V2.625L8.66861 4.52347L4.9564 6.42187Z" fill="black"/>
</g>
<defs>
<clipPath id="clip0_16_89">
<rect width="13" height="10" fill="white"/>
</clipPath>
</defs>
</svg>
