<?xml version="1.0" standalone="no"?>
<!DOCTYPE svg PUBLIC "-//W3C//DTD SVG 20010904//EN"
 "http://www.w3.org/TR/2001/REC-SVG-20010904/DTD/svg10.dtd">
<svg version="1.0" xmlns="http://www.w3.org/2000/svg"
 width="48.000000pt" height="48.000000pt" viewBox="0 0 48.000000 48.000000"
 preserveAspectRatio="xMidYMid meet">

<g transform="translate(0.000000,48.000000) scale(0.100000,-0.100000)"
fill="#000000" stroke="none">
<path d="M27 474 c-4 -4 -7 -27 -7 -51 0 -24 -5 -43 -11 -43 -7 0 -9 -22 -4
-67 3 -38 8 -121 11 -185 l5 -118 219 0 219 0 5 117 c3 65 8 148 11 186 4 43
3 67 -4 67 -5 0 -11 21 -13 48 l-3 47 -211 3 c-115 1 -213 -1 -217 -4z m393
-64 l0 -30 -180 0 -180 0 0 30 0 30 180 0 180 0 0 -30z m20 -105 c0 -25 -8
-44 -25 -60 -29 -30 -55 -32 -86 -6 -23 19 -24 19 -48 0 -30 -24 -53 -24 -82
0 -23 19 -24 19 -48 0 -32 -26 -57 -24 -86 6 -17 16 -25 35 -25 60 l0 35 200
0 200 0 0 -35z m-200 -118 c55 3 87 3 133 2 l47 -2 0 -69 0 -68 -54 0 -55 0
-3 48 -3 47 -65 0 -65 0 -3 -47 -3 -48 -55 0 -54 0 0 71 c0 69 1 71 23 65 13
-3 36 -1 52 4 17 5 41 6 55 3 14 -4 36 -6 50 -6z m40 -107 c0 -28 -2 -30 -40
-30 -38 0 -40 2 -40 30 0 28 2 30 40 30 38 0 40 -2 40 -30z"/>
</g>
</svg>
