<svg width="48" height="45" viewBox="0 0 48 45" fill="none" xmlns="http://www.w3.org/2000/svg">
<g id="clarity:users-line" clip-path="url(#clip0_993_102)">
<path id="Vector" d="M23.8406 20.8022C28.1448 20.8022 31.4925 17.3069 31.4925 13.0171C31.4925 8.72735 27.9854 5.39087 23.6812 5.39087C19.377 5.39087 16.0293 8.88623 16.0293 13.0171C16.0293 17.3069 19.5364 20.8022 23.8406 20.8022ZM23.6812 8.56847C23.8406 8.56847 23.8406 8.56847 23.6812 8.56847C26.2318 8.56847 28.3042 10.6339 28.3042 13.176C28.3042 15.7181 26.2318 17.6246 23.6812 17.6246C21.1306 17.6246 19.2176 15.5592 19.2176 13.176C19.2176 10.6339 21.29 8.56847 23.6812 8.56847Z" fill="#0D5C63"/>
<path id="Vector_2" d="M47.434 19.8487C44.4051 17.1477 40.4197 15.7178 36.2749 15.8767H34.9996C34.6808 17.1477 34.2025 18.2599 33.5649 19.2132C34.5214 19.0543 35.3184 19.0543 36.2749 19.0543C39.3038 18.8954 42.3327 19.8487 44.7239 21.5964V33.0357H47.9122V20.3253L47.434 19.8487Z" fill="#0D5C63"/>
<path id="Vector_3" d="M32.6084 5.70826C33.4055 3.8017 35.6373 2.84842 37.7097 3.64282C39.6226 4.43722 40.5791 6.66154 39.782 8.72697C39.1444 10.1569 37.7097 11.1102 36.2749 11.1102C35.9561 11.1102 35.4779 11.1102 35.159 10.9513C35.3184 11.7457 35.3184 12.5401 35.3184 13.1756V14.1289C35.6373 14.1289 35.9561 14.2878 36.2749 14.2878C40.2603 14.2878 43.4486 11.1102 43.4486 7.29706C43.4486 3.32506 40.2603 0.147461 36.4343 0.147461C33.8837 0.147461 31.6519 1.4185 30.3766 3.64282C31.1737 4.11946 31.9707 4.75498 32.6084 5.70826Z" fill="#0D5C63"/>
<path id="Vector_4" d="M14.4351 19.3721C13.7975 18.4189 13.3192 17.3067 13.0004 16.0357H11.7251C7.58031 15.8768 3.59495 17.3067 0.566073 19.8488L0.0878296 20.3254V33.0358H3.27612V21.5965C5.82675 19.8488 8.69621 18.8955 11.7251 19.0544C12.6816 19.0544 13.6381 19.2133 14.4351 19.3721Z" fill="#0D5C63"/>
<path id="Vector_5" d="M11.7251 14.1293C12.044 14.1293 12.3628 14.1293 12.6816 13.9704V13.0171C12.6816 12.2227 12.6816 11.4283 12.841 10.7928C12.5222 10.9517 12.044 10.9517 11.7251 10.9517C9.65273 10.9517 7.89917 9.204 7.89917 7.13856C7.89917 5.07312 9.65273 3.32544 11.7251 3.32544C13.3193 3.32544 14.754 4.27872 15.3917 5.70864C16.0293 4.91424 16.9858 4.11984 17.7829 3.48432C15.7105 0.147841 11.4063 -0.964319 8.05859 1.10112C4.71088 3.16656 3.59498 7.45632 5.66737 10.7928C6.94269 12.8582 9.17449 14.1293 11.7251 14.1293Z" fill="#0D5C63"/>
<path id="Vector_6" d="M36.9126 29.3815L36.5938 28.9049C33.4055 25.4095 28.9419 23.3441 24.1595 23.5029C19.377 23.3441 14.754 25.4095 11.5657 28.9049L11.2469 29.3815V41.4564C11.2469 42.8863 12.3628 44.1573 13.9569 44.1573H34.362C35.7967 44.1573 37.072 42.8863 37.072 41.4564V29.3815H36.9126ZM33.7243 40.9797H14.4352V30.4936C16.9858 27.9516 20.4929 26.6805 24.1595 26.6805C27.6666 26.5217 31.1737 27.9516 33.7243 30.4936V40.9797Z" fill="#0D5C63"/>
</g>
<defs>
<clipPath id="clip0_993_102">
<rect width="48" height="44.2105" fill="white"/>
</clipPath>
</defs>
</svg>
